<!-- created by svgstack.com | Attribution is required. --><svg width="250" height="247" viewBox="0 0 250 247" fill="none" xmlns="http://www.w3.org/2000/svg"><path d="M73 247H125V0L48.6877 37.7628C35.6125 44.233 26.1894 56.2984 23.0796 70.5516L8.18378 138.824C5.53221 150.977 8.40405 163.681 16.0255 173.511L73 247Z" fill="#484D50"/><path d="M177 247H125V0L201.312 37.7628C214.387 44.233 223.811 56.2984 226.92 70.5516L241.816 138.824C244.468 150.977 241.596 163.681 233.974 173.511L177 247Z" fill="#555754"/><path d="M84.4135 221L39.6638 163.814C33.8962 156.444 31.7221 146.893 33.7332 137.761L46.0378 81.8877C48.0933 72.554 54.299 64.6619 62.8979 60.4462L125 30L187.102 60.4462C195.701 64.6619 201.907 72.554 203.962 81.8877L216.267 137.761C218.278 146.893 216.104 156.444 210.336 163.814L165.587 221H84.4135Z" stroke="#6B5D83" stroke-width="6"/><mask id="mask0_41_2150" style="mask-type:alpha" maskUnits="userSpaceOnUse" x="30" y="26" width="190" height="198"><path d="M84.4135 221L39.6638 163.814C33.8962 156.444 31.7221 146.893 33.7332 137.761L46.0378 81.8877C48.0933 72.554 54.299 64.6619 62.8979 60.4462L125 30L187.102 60.4462C195.701 64.6619 201.907 72.554 203.962 81.8877L216.267 137.761C218.278 146.893 216.104 156.444 210.336 163.814L165.587 221H84.4135Z" stroke="#756791" stroke-width="6"/></mask><g mask="url(#mask0_41_2150)"><path d="M203.692 61.997L22.0298 171.559C21.995 160.302 -11.3157 112.257 -27.9666 89.6418L160.148 -35.44L203.692 61.997Z" fill="#756791"/></g><mask id="mask1_41_2150" style="mask-type:alpha" maskUnits="userSpaceOnUse" x="55" y="52" width="141" height="146"><path d="M94.1963 198L60.0803 154.287C55.6833 148.653 54.0258 141.353 55.559 134.373L64.9397 91.6629C66.5067 84.5282 71.2378 78.4955 77.7934 75.273L125.138 52L172.484 75.273C179.039 78.4955 183.77 84.5282 185.337 91.6629L194.718 134.373C196.251 141.353 194.594 148.653 190.197 154.287L156.081 198H94.1963Z" fill="#FF0000"/></mask><g mask="url(#mask1_41_2150)"><path d="M211 133C211 121.706 208.776 110.523 204.454 100.089C200.132 89.6552 193.797 80.1747 185.811 72.1888C177.825 64.203 168.345 57.8683 157.911 53.5464C147.477 49.2245 136.294 47 125 47V133H211Z" fill="#EFCDF5"/><path d="M211 133C211 144.294 208.776 155.477 204.454 165.911C200.132 176.345 193.797 185.825 185.811 193.811C177.825 201.797 168.345 208.132 157.911 212.454C147.477 216.776 136.294 219 125 219V133H211Z" fill="#C487F5"/><path d="M39 133C39 144.294 41.2245 155.477 45.5464 165.911C49.8683 176.345 56.203 185.825 64.1888 193.811C72.1747 201.797 81.6552 208.132 92.0892 212.454C102.523 216.776 113.706 219 125 219V133H39Z" fill="#D681E7"/><path d="M211 133C211 121.461 208.678 110.04 204.172 99.417C199.666 88.7942 193.068 79.1867 184.772 71.1668L125 133H211Z" fill="#C487F5"/><path d="M211 133C211 149.269 206.385 165.204 197.692 178.955C188.999 192.706 176.583 203.709 161.887 210.687L125 133H211Z" fill="#A670EF"/><path d="M39 133C39 149.269 43.6145 165.204 52.3078 178.955C61.0011 192.706 73.4166 203.709 88.1128 210.687L125 133H39Z" fill="#BE6DD4"/><path d="M39 133C39 121.706 41.2245 110.523 45.5464 100.089C49.8683 89.6552 56.203 80.1747 64.1888 72.1888C72.1747 64.203 81.6552 57.8683 92.0892 53.5464C102.523 49.2245 113.706 47 125 47V133H39Z" fill="#EF96F2"/><path d="M39 133C39 121.461 41.3221 110.04 45.8281 99.417C50.3341 88.7942 56.9318 79.1867 65.2283 71.1668L125 133H39Z" fill="#D681E7"/></g><mask id="mask2_41_2150" style="mask-type:alpha" maskUnits="userSpaceOnUse" x="87" y="85" width="76" height="80"><path d="M108.236 165L89.7525 141.048C87.3702 137.961 86.4722 133.96 87.3028 130.136L92.3852 106.733C93.2342 102.824 95.7974 99.5181 99.3491 97.7523L125 85L150.651 97.7523C154.203 99.5181 156.766 102.824 157.615 106.733L162.697 130.136C163.528 133.96 162.63 137.961 160.248 141.048L141.764 165H108.236Z" fill="#FF0000"/></mask><g mask="url(#mask2_41_2150)"><path d="M170 128C170 133.909 168.836 139.761 166.575 145.221C164.313 150.68 160.998 155.641 156.82 159.82C152.641 163.998 147.68 167.313 142.221 169.575C136.761 171.836 130.909 173 125 173L125 128H170Z" fill="#8B6BBB"/><path d="M80 128C80 133.909 81.164 139.761 83.4254 145.221C85.6869 150.68 89.0016 155.641 93.1802 159.82C97.3588 163.998 102.32 167.313 107.779 169.575C113.239 171.836 119.091 173 125 173L125 128H80Z" fill="#8164AC"/><path d="M170 128C170 122.091 168.836 116.239 166.575 110.779C164.313 105.32 160.998 100.359 156.82 96.1802C152.641 92.0016 147.68 88.6869 142.221 86.4254C136.761 84.164 130.909 83 125 83L125 128H170Z" fill="#8C6BBD"/><path d="M80 128C80 122.091 81.164 116.239 83.4254 110.779C85.6869 105.32 89.0016 100.359 93.1802 96.1802C97.3588 92.0016 102.32 88.6869 107.779 86.4254C113.239 84.164 119.091 83 125 83L125 128H80Z" fill="#8465AD"/><path d="M170 128C170 136.308 167.7 144.454 163.355 151.536C159.009 158.617 152.788 164.357 145.381 168.12L125 128H170Z" fill="#8163AD"/><path d="M80 128C80 136.308 82.3001 144.454 86.6454 151.536C90.9907 158.617 97.2115 164.357 104.619 168.12L125 128H80Z" fill="#73599C"/><path d="M170 128C170 121.298 168.503 114.681 165.619 108.632C162.734 102.583 158.535 97.2544 153.328 93.0356L125 128H170Z" fill="#8466B0"/><path d="M80 128C80 121.298 81.4968 114.681 84.3812 108.632C87.2656 102.583 91.4646 97.2544 96.6717 93.0356L125 128H80Z" fill="#785C9F"/></g><path d="M69 64L63 54L125 21V34L69 64Z" fill="#C6C3D6"/><path d="M185 65L191 55L125 21V34L185 65Z" fill="#E7E2F7"/><path d="M84 228C95.6667 228.167 125 228 125 228V216H89L79 205L71 214L84 228Z" fill="#C6C3D6"/><path d="M166 228C154.333 228.167 125 228 125 228V216H161L173 205L181 214L166 228Z" fill="#E7E2F7"/><g filter="url(#filter0_d_41_2150)"><path d="M18 125H32V142C28.8908 134.892 25.7292 130.499 18 125Z" fill="#A2A19F"/><path d="M46 125H32V142C35.1092 134.892 38.2708 130.499 46 125Z" fill="#D6D7D6"/><path d="M18 125H32V108C28.8908 115.108 25.7292 119.501 18 125Z" fill="#BDBEBD"/><path d="M46 125H32V108C35.1092 115.108 38.2708 119.501 46 125Z" fill="white"/></g><g filter="url(#filter1_d_41_2150)"><path d="M204 125H218V142C214.891 134.892 211.729 130.499 204 125Z" fill="#A2A19F"/><path d="M232 125H218V142C221.109 134.892 224.271 130.499 232 125Z" fill="#D6D7D6"/><path d="M204 125H218V108C214.891 115.108 211.729 119.501 204 125Z" fill="#BDBEBD"/><path d="M232 125H218V108C221.109 115.108 224.271 119.501 232 125Z" fill="white"/></g><g filter="url(#filter2_d_41_2150)"><path d="M92 125.071H125V165.143C117.671 148.387 110.219 138.032 92 125.071Z" fill="#A2A19F"/><path d="M158 125.071H125V165.143C132.329 148.387 139.781 138.032 158 125.071Z" fill="#D6D7D6"/><path d="M92 125.071H125V85C117.671 101.755 110.219 112.11 92 125.071Z" fill="#BDBEBD"/><path d="M158 125.071H125V85C132.329 101.755 139.781 112.11 158 125.071Z" fill="white"/></g><defs><filter id="filter0_d_41_2150" x="0" y="90" width="64" height="70" filterUnits="userSpaceOnUse" color-interpolation-filters="sRGB"><feFlood flood-opacity="0" result="BackgroundImageFix"/><feColorMatrix in="SourceAlpha" type="matrix" values="0 0 0 0 0 0 0 0 0 0 0 0 0 0 0 0 0 0 127 0" result="hardAlpha"/><feOffset/><feGaussianBlur stdDeviation="9"/><feComposite in2="hardAlpha" operator="out"/><feColorMatrix type="matrix" values="0 0 0 0 0 0 0 0 0 0 0 0 0 0 0 0 0 0 0.65 0"/><feBlend mode="normal" in2="BackgroundImageFix" result="effect1_dropShadow_41_2150"/><feBlend mode="normal" in="SourceGraphic" in2="effect1_dropShadow_41_2150" result="shape"/></filter><filter id="filter1_d_41_2150" x="186" y="90" width="64" height="70" filterUnits="userSpaceOnUse" color-interpolation-filters="sRGB"><feFlood flood-opacity="0" result="BackgroundImageFix"/><feColorMatrix in="SourceAlpha" type="matrix" values="0 0 0 0 0 0 0 0 0 0 0 0 0 0 0 0 0 0 127 0" result="hardAlpha"/><feOffset/><feGaussianBlur stdDeviation="9"/><feComposite in2="hardAlpha" operator="out"/><feColorMatrix type="matrix" values="0 0 0 0 0 0 0 0 0 0 0 0 0 0 0 0 0 0 0.65 0"/><feBlend mode="normal" in2="BackgroundImageFix" result="effect1_dropShadow_41_2150"/><feBlend mode="normal" in="SourceGraphic" in2="effect1_dropShadow_41_2150" result="shape"/></filter><filter id="filter2_d_41_2150" x="74" y="67" width="102" height="116.143" filterUnits="userSpaceOnUse" color-interpolation-filters="sRGB"><feFlood flood-opacity="0" result="BackgroundImageFix"/><feColorMatrix in="SourceAlpha" type="matrix" values="0 0 0 0 0 0 0 0 0 0 0 0 0 0 0 0 0 0 127 0" result="hardAlpha"/><feOffset/><feGaussianBlur stdDeviation="9"/><feComposite in2="hardAlpha" operator="out"/><feColorMatrix type="matrix" values="0 0 0 0 0 0 0 0 0 0 0 0 0 0 0 0 0 0 0.65 0"/><feBlend mode="normal" in2="BackgroundImageFix" result="effect1_dropShadow_41_2150"/><feBlend mode="normal" in="SourceGraphic" in2="effect1_dropShadow_41_2150" result="shape"/></filter></defs></svg> 