<!-- created by svgstack.com | Attribution is required. --><svg width="257" height="264" viewBox="0 0 257 264" fill="none" xmlns="http://www.w3.org/2000/svg"><path d="M86.4193 17H129V249H95.8817L44.8013 194.343C28.2223 176.603 19 153.228 19 128.947V80.9184L86.4193 17Z" fill="#454845"/><path d="M171.581 17H129V249H162.118L213.199 194.343C229.778 176.603 239 153.228 239 128.947V80.9184L171.581 17Z" fill="#555855"/><path d="M43 107L56 133L43 159C76.4767 185.807 96.2434 210.344 129 258C161.757 210.344 179.523 185.807 213 159L201 133L215 107C181.523 80.1928 161.757 55.6562 129 8C96.2434 55.6562 76.4767 80.1928 43 107Z" stroke="#859B91" stroke-width="6"/><mask id="mask0_41_2166" style="mask-type:alpha" maskUnits="userSpaceOnUse" x="58" y="25" width="142" height="216"><path d="M58 110.326L68.65 133L58 155.674C85.9629 179.357 101.639 198.897 129 241C156.361 198.897 172.037 179.357 200 155.674L189.35 133L200 110.326C172.037 86.6426 156.361 67.1028 129 25C101.639 67.1028 85.9629 86.6426 58 110.326Z" fill="#FF0000"/></mask><g mask="url(#mask0_41_2166)"><path d="M245 134C245 118.767 242 103.682 236.17 89.6087C230.34 75.535 221.796 62.7472 211.024 51.9756C200.253 41.204 187.465 32.6595 173.391 26.83C159.318 21.0004 144.233 18 129 18L129 134H245Z" fill="#84FFBD"/><path d="M245 134C245 105.071 234.19 77.1853 214.692 55.8146C195.193 34.4439 168.412 21.1303 139.604 18.4857L129 134H245Z" fill="#B5FFD6"/><path d="M245 134C245 109.966 237.535 86.5261 223.637 66.9187L129 134H245Z" fill="#7BFFBB"/><path d="M245 134C245 124.012 243.71 114.065 241.162 104.407L129 134H245Z" fill="#31A56E"/><path d="M245 134.036C245 149.269 242 164.353 236.17 178.427C230.34 192.501 221.796 205.289 211.024 216.06C200.253 226.832 187.465 235.376 173.391 241.206C159.318 247.035 144.233 250.036 129 250.036L129 134.036H245Z" fill="#21A860"/><path d="M245 134.036C245 149.269 242 164.353 236.17 178.427C230.34 192.501 221.796 205.289 211.024 216.06L129 134.036H245Z" fill="#3CB57B"/><path d="M245 134C245 142.344 244.1 150.663 242.315 158.814L129 134H245Z" fill="#31A56E"/><path d="M13 134C13 118.767 16.0004 103.682 21.83 89.6087C27.6595 75.535 36.204 62.7472 46.9756 51.9756C57.7472 41.204 70.535 32.6595 84.6087 26.83C98.6825 21.0004 113.767 18 129 18L129 134H13Z" fill="#6BCE9A"/><path d="M13 134C13 111.866 19.3325 90.1942 31.25 71.5426L129 134H13Z" fill="#1E8C52"/><path d="M13 134.036C13 149.269 16.0004 164.353 21.83 178.427C27.6595 192.501 36.204 205.289 46.9756 216.06C57.7472 226.832 70.535 235.376 84.6087 241.206C98.6825 247.035 113.767 250.036 129 250.036L129 134.036H13Z" fill="#1B844D"/><path d="M17.7297 138.771C17.7297 163.112 25.3867 186.837 39.6165 206.585C53.8463 226.333 73.9278 241.105 97.0177 248.809L133.73 138.771H17.7297Z" fill="#1E7645"/><path d="M13 134.036C13 149.269 16.0004 164.353 21.83 178.427C27.6595 192.501 36.204 205.289 46.9756 216.06L129 134.036H13Z" fill="#1E814A"/><path d="M13 134C13 144.355 14.3865 154.664 17.1227 164.651L129 134H13Z" fill="#1E8C52"/></g><path d="M83 114.773L91.2564 132.5L83 150.227C102.046 166.295 110.364 175.435 129 204C147.636 175.435 155.954 166.295 175 150.227L166.744 132.5L175 114.773C155.954 98.7047 147.636 89.5647 129 61C110.364 89.5647 102.046 98.7047 83 114.773Z" fill="#10673C"/><path opacity="0.4" d="M129 61C110.364 89.5647 102.046 98.7047 83 114.773L91.2564 132.5L83 150.227C102.046 166.295 110.364 175.435 129 204V61Z" fill="#0D522E"/><g filter="url(#filter0_d_41_2166)"><path d="M18 133H32V150C28.8908 142.892 25.7292 138.499 18 133Z" fill="#A2A19F"/><path d="M46 133H32V150C35.1092 142.892 38.2708 138.499 46 133Z" fill="#D6D7D6"/><path d="M18 133H32V116C28.8908 123.108 25.7292 127.501 18 133Z" fill="#BDBEBD"/><path d="M46 133H32V116C35.1092 123.108 38.2708 127.501 46 133Z" fill="white"/></g><g filter="url(#filter1_d_41_2166)"><path d="M211 133H225V150C221.891 142.892 218.729 138.499 211 133Z" fill="#A2A19F"/><path d="M239 133H225V150C228.109 142.892 231.271 138.499 239 133Z" fill="#D6D7D6"/><path d="M211 133H225V116C221.891 123.108 218.729 127.501 211 133Z" fill="#BDBEBD"/><path d="M239 133H225V116C228.109 123.108 231.271 127.501 239 133Z" fill="white"/></g><g filter="url(#filter2_d_41_2166)"><path d="M96 133.071H129V173.143C121.671 156.387 114.219 146.032 96 133.071Z" fill="#A2A19F"/><path d="M162 133.071H129V173.143C136.329 156.387 143.781 146.032 162 133.071Z" fill="#D6D7D6"/><path d="M96 133.071H129V93C121.671 109.755 114.219 120.11 96 133.071Z" fill="#BDBEBD"/><path d="M162 133.071H129V93C136.329 109.755 143.781 120.11 162 133.071Z" fill="white"/></g><path d="M129 0V14L102 52L95 46L129 0Z" fill="#B5CCBF"/><path d="M129 0V14L156 52L163 46L129 0Z" fill="#E2FFEF"/><path d="M129 264V250L102 212L95 218L129 264Z" fill="#B5CCBF"/><path d="M129 264V250L156 212L163 218L129 264Z" fill="#E2FFEF"/><defs><filter id="filter0_d_41_2166" x="0" y="98" width="64" height="70" filterUnits="userSpaceOnUse" color-interpolation-filters="sRGB"><feFlood flood-opacity="0" result="BackgroundImageFix"/><feColorMatrix in="SourceAlpha" type="matrix" values="0 0 0 0 0 0 0 0 0 0 0 0 0 0 0 0 0 0 127 0" result="hardAlpha"/><feOffset/><feGaussianBlur stdDeviation="9"/><feComposite in2="hardAlpha" operator="out"/><feColorMatrix type="matrix" values="0 0 0 0 0 0 0 0 0 0 0 0 0 0 0 0 0 0 0.65 0"/><feBlend mode="normal" in2="BackgroundImageFix" result="effect1_dropShadow_41_2166"/><feBlend mode="normal" in="SourceGraphic" in2="effect1_dropShadow_41_2166" result="shape"/></filter><filter id="filter1_d_41_2166" x="193" y="98" width="64" height="70" filterUnits="userSpaceOnUse" color-interpolation-filters="sRGB"><feFlood flood-opacity="0" result="BackgroundImageFix"/><feColorMatrix in="SourceAlpha" type="matrix" values="0 0 0 0 0 0 0 0 0 0 0 0 0 0 0 0 0 0 127 0" result="hardAlpha"/><feOffset/><feGaussianBlur stdDeviation="9"/><feComposite in2="hardAlpha" operator="out"/><feColorMatrix type="matrix" values="0 0 0 0 0 0 0 0 0 0 0 0 0 0 0 0 0 0 0.65 0"/><feBlend mode="normal" in2="BackgroundImageFix" result="effect1_dropShadow_41_2166"/><feBlend mode="normal" in="SourceGraphic" in2="effect1_dropShadow_41_2166" result="shape"/></filter><filter id="filter2_d_41_2166" x="78" y="75" width="102" height="116.143" filterUnits="userSpaceOnUse" color-interpolation-filters="sRGB"><feFlood flood-opacity="0" result="BackgroundImageFix"/><feColorMatrix in="SourceAlpha" type="matrix" values="0 0 0 0 0 0 0 0 0 0 0 0 0 0 0 0 0 0 127 0" result="hardAlpha"/><feOffset/><feGaussianBlur stdDeviation="9"/><feComposite in2="hardAlpha" operator="out"/><feColorMatrix type="matrix" values="0 0 0 0 0 0 0 0 0 0 0 0 0 0 0 0 0 0 0.65 0"/><feBlend mode="normal" in2="BackgroundImageFix" result="effect1_dropShadow_41_2166"/><feBlend mode="normal" in="SourceGraphic" in2="effect1_dropShadow_41_2166" result="shape"/></filter></defs></svg> 