<!-- created by svgstack.com | Attribution is required. --><svg width="236" height="247" viewBox="0 0 236 247" fill="none" xmlns="http://www.w3.org/2000/svg"><path d="M118 0H63.2033C50.7367 0 39.7716 8.24135 36.3059 20.216L19.956 76.7076L2.53582 130.927C-1.64138 143.928 2.89249 158.147 13.8246 166.331L57.2375 198.831L117.56 247L118 246.649V0Z" fill="#484D50"/><path d="M117.995 0H172.81C185.277 0 196.243 8.24317 199.707 20.2196L216.047 76.7076L233.46 130.935C237.634 143.932 233.103 158.146 222.177 166.33L178.786 198.831L118.497 247L117.995 246.599V0Z" fill="#555654"/><path d="M74.4448 21H161.57C171.48 21 180.197 27.6413 182.951 37.2903L195.939 82.8009L209.78 126.49C213.098 136.962 209.496 148.413 200.811 155.007L166.321 181.192L118.397 220L118.002 219.68V219.717L117.653 220L69.7026 181.192L35.1942 155.008C26.5043 148.414 22.9004 136.958 26.2208 126.483L40.0679 82.8009L53.0643 37.2874C55.8191 27.6398 64.5352 21 74.4448 21Z" stroke="url(#paint0_linear_41_2154)" stroke-width="6"/><mask id="mask0_41_2154" style="mask-type:alpha" maskUnits="userSpaceOnUse" x="46" y="43" width="144" height="152"><path d="M118 195L155.082 165.358L182.736 144.633C188.879 140.03 191.426 132.037 189.08 124.728L178 90.2047L168.111 56.0007C165.885 48.3004 158.835 43 150.819 43H118H85.1806C77.1649 43 70.115 48.3004 67.8888 56.0007L58 90.2047L46.9197 124.728C44.5739 132.037 47.1213 140.03 53.2639 144.633L80.918 165.358L118 195Z" fill="#D9D9D9"/></mask><g mask="url(#mask0_41_2154)"><path d="M20 117C20 130.637 22.8462 144.124 28.3567 156.599C33.8671 169.073 41.9204 180.26 52.0014 189.444L118 117L20 117Z" fill="#CE7E18"/><path d="M23.064 92.6861C27.1667 76.667 35.2561 61.9464 46.5792 49.8951C57.9022 37.8438 72.0906 28.8537 87.8233 23.7618L118 117L23.064 92.6861Z" fill="#DE9621"/><path d="M20 117C20 121.051 20.2512 125.098 20.7521 129.118L118 117L20 117Z" fill="#D6881E"/><path d="M118 215C99.2883 215 80.9678 209.643 65.2037 199.562C49.4396 189.482 36.891 175.099 29.041 158.113L118 117V215Z" fill="#D6881E"/><path d="M118 19C102.976 19 88.1526 22.4544 74.6762 29.0963L118 117V19Z" fill="#D08A21"/><path d="M20 117C20 102.875 23.0532 88.9177 28.9505 76.0831C34.8479 63.2485 43.4499 51.8404 54.1672 42.6402L118 117L20 117Z" fill="#DE8E21"/><path d="M216 117C216 130.637 213.154 144.124 207.643 156.599C202.133 169.073 194.08 180.26 183.999 189.444L118 117L216 117Z" fill="#ECCF57"/><path d="M212.936 92.6861C208.833 76.667 200.744 61.9464 189.421 49.8951C178.098 37.8438 163.909 28.8537 148.177 23.7618L118 117L212.936 92.6861Z" fill="#F9F5E1"/><path d="M216 117C216 121.051 215.749 125.098 215.248 129.118L118 117L216 117Z" fill="#F4E579"/><path d="M118 215C136.712 215 155.032 209.643 170.796 199.562C186.56 189.482 199.109 175.099 206.959 158.113L118 117V215Z" fill="#EFD35D"/><path d="M118 19C133.024 19 147.847 22.4544 161.324 29.0963L118 117V19Z" fill="#EFEBBD"/><path d="M216 117C216 102.875 212.947 88.9177 207.049 76.0831C201.152 63.2485 192.55 51.8404 181.833 42.6402L118 117L216 117Z" fill="#F7EBB2"/></g><mask id="mask1_41_2154" style="mask-type:alpha" maskUnits="userSpaceOnUse" x="74" y="74" width="88" height="93"><path d="M118 167L140.249 148.864L156.313 136.587C160.327 133.52 161.99 128.268 160.474 123.45L154 102.882L148.286 82.7268C146.822 77.5635 142.108 74 136.741 74H118H99.2592C93.8924 74 89.1782 77.5635 87.7143 82.7268L82 102.882L75.5265 123.45C74.01 128.268 75.6731 133.52 79.6865 136.587L95.7508 148.864L118 167Z" fill="black"/></mask><g mask="url(#mask1_41_2154)"><path d="M118 215C130.87 215 143.613 212.465 155.503 207.54C167.393 202.615 178.196 195.397 187.296 186.296C196.397 177.196 203.615 166.393 208.54 154.503C213.465 142.613 216 129.87 216 117L118 117V215Z" fill="#C07E1B"/><path d="M216 117C216 91.0088 205.675 66.0821 187.296 47.7035C168.918 29.325 143.991 19 118 19V117L216 117Z" fill="#D09231"/><path d="M118 19C105.13 19 92.3869 21.5348 80.497 26.4598C68.6071 31.3848 57.8037 38.6034 48.7035 47.7035C39.6034 56.8037 32.3848 67.6071 27.4598 79.497C22.5348 91.3869 20 104.13 20 117L118 117V19Z" fill="#A56910"/><path d="M118 215C105.13 215 92.3869 212.465 80.497 207.54C68.6071 202.615 57.8037 195.397 48.7035 186.296C39.6034 177.196 32.3848 166.393 27.4598 154.503C22.5348 142.613 20 129.87 20 117L118 117V215Z" fill="#9C6210"/></g><path d="M60 19L68.401 16.4151C71.4499 15.477 74.6219 15 77.8118 15H118V26H77.6966C74.5822 26 71.4845 26.4546 68.5015 27.3496L63 29L60 19Z" fill="#A5A69C"/><path d="M176 19L167.599 16.4151C164.55 15.477 161.378 15 158.188 15H118V26H158.303C161.418 26 164.515 26.4546 167.499 27.3496L173 29L176 19Z" fill="#FFFBE9"/><path d="M118 226V210L168 171L176 181L118 226Z" fill="#FFFBE9"/><path d="M118 226V210L68 171L60 181L118 226Z" fill="#FFFBE9"/><path d="M118 226V210L68 171L60 181L118 226Z" fill="#A5A69C"/><g filter="url(#filter0_d_41_2154)"><path d="M18 123H32V140C28.8908 132.892 25.7292 128.499 18 123Z" fill="#A2A19F"/><path d="M46 123H32V140C35.1092 132.892 38.2708 128.499 46 123Z" fill="#D6D7D6"/><path d="M18 123H32V106C28.8908 113.108 25.7292 117.501 18 123Z" fill="#BDBEBD"/><path d="M46 123H32V106C35.1092 113.108 38.2708 117.501 46 123Z" fill="white"/></g><g filter="url(#filter1_d_41_2154)"><path d="M190 123H204V140C200.891 132.892 197.729 128.499 190 123Z" fill="#A2A19F"/><path d="M218 123H204V140C207.109 132.892 210.271 128.499 218 123Z" fill="#D6D7D6"/><path d="M190 123H204V106C200.891 113.108 197.729 117.501 190 123Z" fill="#BDBEBD"/><path d="M218 123H204V106C207.109 113.108 210.271 117.501 218 123Z" fill="white"/></g><g filter="url(#filter2_d_41_2154)"><path d="M85 117.071H118V157.143C110.671 140.387 103.219 130.032 85 117.071Z" fill="#A2A19F"/><path d="M151 117.071H118V157.143C125.329 140.387 132.781 130.032 151 117.071Z" fill="#D6D7D6"/><path d="M85 117.071H118V77C110.671 93.7554 103.219 104.11 85 117.071Z" fill="#BDBEBD"/><path d="M151 117.071H118V77C125.329 93.7554 132.781 104.11 151 117.071Z" fill="white"/></g><defs><filter id="filter0_d_41_2154" x="0" y="88" width="64" height="70" filterUnits="userSpaceOnUse" color-interpolation-filters="sRGB"><feFlood flood-opacity="0" result="BackgroundImageFix"/><feColorMatrix in="SourceAlpha" type="matrix" values="0 0 0 0 0 0 0 0 0 0 0 0 0 0 0 0 0 0 127 0" result="hardAlpha"/><feOffset/><feGaussianBlur stdDeviation="9"/><feComposite in2="hardAlpha" operator="out"/><feColorMatrix type="matrix" values="0 0 0 0 0 0 0 0 0 0 0 0 0 0 0 0 0 0 0.65 0"/><feBlend mode="normal" in2="BackgroundImageFix" result="effect1_dropShadow_41_2154"/><feBlend mode="normal" in="SourceGraphic" in2="effect1_dropShadow_41_2154" result="shape"/></filter><filter id="filter1_d_41_2154" x="172" y="88" width="64" height="70" filterUnits="userSpaceOnUse" color-interpolation-filters="sRGB"><feFlood flood-opacity="0" result="BackgroundImageFix"/><feColorMatrix in="SourceAlpha" type="matrix" values="0 0 0 0 0 0 0 0 0 0 0 0 0 0 0 0 0 0 127 0" result="hardAlpha"/><feOffset/><feGaussianBlur stdDeviation="9"/><feComposite in2="hardAlpha" operator="out"/><feColorMatrix type="matrix" values="0 0 0 0 0 0 0 0 0 0 0 0 0 0 0 0 0 0 0.65 0"/><feBlend mode="normal" in2="BackgroundImageFix" result="effect1_dropShadow_41_2154"/><feBlend mode="normal" in="SourceGraphic" in2="effect1_dropShadow_41_2154" result="shape"/></filter><filter id="filter2_d_41_2154" x="67" y="59" width="102" height="116.143" filterUnits="userSpaceOnUse" color-interpolation-filters="sRGB"><feFlood flood-opacity="0" result="BackgroundImageFix"/><feColorMatrix in="SourceAlpha" type="matrix" values="0 0 0 0 0 0 0 0 0 0 0 0 0 0 0 0 0 0 127 0" result="hardAlpha"/><feOffset/><feGaussianBlur stdDeviation="9"/><feComposite in2="hardAlpha" operator="out"/><feColorMatrix type="matrix" values="0 0 0 0 0 0 0 0 0 0 0 0 0 0 0 0 0 0 0.65 0"/><feBlend mode="normal" in2="BackgroundImageFix" result="effect1_dropShadow_41_2154"/><feBlend mode="normal" in="SourceGraphic" in2="effect1_dropShadow_41_2154" result="shape"/></filter><linearGradient id="paint0_linear_41_2154" x1="25" y1="120.5" x2="211" y2="120.5" gradientUnits="userSpaceOnUse"><stop stop-color="#BB8121"/><stop offset="1" stop-color="#F7F394"/></linearGradient></defs></svg> 