<!-- created by svgstack.com | Attribution is required. --><svg width="284" height="256" viewBox="0 0 284 256" fill="none" xmlns="http://www.w3.org/2000/svg"><path d="M142 233.708C170.113 233.708 197.074 222.54 216.953 202.661C236.832 182.782 248 155.821 248 127.708C248 99.5947 236.832 72.6332 216.953 52.7543C197.074 32.8755 170.113 21.7076 142 21.7076L142 127.708L142 233.708Z" fill="#565754"/><path d="M142 233.708C113.887 233.708 86.9255 222.54 67.0467 202.661C47.1678 182.782 36 155.821 36 127.708C36 99.5947 47.1678 72.6332 67.0467 52.7543C86.9255 32.8755 113.887 21.7076 142 21.7076V127.708L142 233.708Z" fill="#484D51"/><path d="M137.28 236.642C138.812 239.592 140.381 242.612 142 245.708C143.62 242.61 145.19 239.588 146.723 236.636C171.449 189.024 188.683 159.692 255 127.708C188.683 95.7235 171.449 66.3911 146.723 18.7789C145.19 15.827 143.62 12.805 142 9.70764C140.38 12.805 138.81 15.827 137.277 18.7788C112.551 66.3911 95.3174 95.7235 29 127.708C95.3174 159.692 112.551 189.024 137.277 236.636L137.28 236.642Z" stroke="#8E8E85" stroke-width="9"/><mask id="mask0_41_2152" style="mask-type:alpha" maskUnits="userSpaceOnUse" x="18" y="0" width="248" height="256"><path d="M137.28 236.642C138.812 239.592 140.381 242.612 142 245.708C143.62 242.61 145.19 239.588 146.723 236.636C171.449 189.024 188.683 159.692 255 127.708C188.683 95.7235 171.449 66.3911 146.723 18.7789C145.19 15.827 143.62 12.805 142 9.70764C140.38 12.805 138.81 15.827 137.277 18.7788C112.551 66.3911 95.3174 95.7235 29 127.708C95.3174 159.692 112.551 189.024 137.277 236.636L137.28 236.642Z" stroke="#C2BFB9" stroke-width="9"/></mask><g mask="url(#mask0_41_2152)"><path d="M96 60.7076L142 91.7076V60.7076V-5.29236H96V60.7076Z" fill="#C2BFB9"/></g><mask id="mask1_41_2152" style="mask-type:alpha" maskUnits="userSpaceOnUse" x="18" y="0" width="248" height="256"><path d="M137.28 236.642C138.812 239.592 140.381 242.612 142 245.708C143.62 242.61 145.19 239.588 146.723 236.636C171.449 189.024 188.683 159.692 255 127.708C188.683 95.7235 171.449 66.3911 146.723 18.7789C145.19 15.827 143.62 12.805 142 9.70764C140.38 12.805 138.81 15.827 137.277 18.7788C112.551 66.3911 95.3174 95.7235 29 127.708C95.3174 159.692 112.551 189.024 137.277 236.636L137.28 236.642Z" stroke="#E8E5DF" stroke-width="9"/></mask><g mask="url(#mask1_41_2152)"><path d="M188 60.7076L142 91.7076V60.7076V-5.29236H188V60.7076Z" fill="#E8E5DF"/></g><mask id="mask2_41_2152" style="mask-type:alpha" maskUnits="userSpaceOnUse" x="18" y="0" width="248" height="256"><path d="M137.28 236.642C138.812 239.592 140.381 242.612 142 245.708C143.62 242.61 145.19 239.588 146.723 236.636C171.449 189.024 188.683 159.692 255 127.708C188.683 95.7235 171.449 66.3911 146.723 18.7789C145.19 15.827 143.62 12.805 142 9.70764C140.38 12.805 138.81 15.827 137.277 18.7788C112.551 66.3911 95.3174 95.7235 29 127.708C95.3174 159.692 112.551 189.024 137.277 236.636L137.28 236.642Z" stroke="black" stroke-width="9"/></mask><g mask="url(#mask2_41_2152)"><path d="M96 195.708L142 164.708V195.708V261.708H96V195.708Z" fill="#C2BFB9"/></g><mask id="mask3_41_2152" style="mask-type:alpha" maskUnits="userSpaceOnUse" x="18" y="0" width="248" height="256"><path d="M137.28 236.642C138.812 239.592 140.381 242.612 142 245.708C143.62 242.61 145.19 239.588 146.723 236.636C171.449 189.024 188.683 159.692 255 127.708C188.683 95.7235 171.449 66.3911 146.723 18.7789C145.19 15.827 143.62 12.805 142 9.70764C140.38 12.805 138.81 15.827 137.277 18.7788C112.551 66.3911 95.3174 95.7235 29 127.708C95.3174 159.692 112.551 189.024 137.277 236.636L137.28 236.642Z" stroke="#8E8E85" stroke-width="9"/></mask><g mask="url(#mask3_41_2152)"><path d="M188 195.708L142 164.708V195.708V261.708H188V195.708Z" fill="#E8E5DF"/></g><rect x="68.9944" y="54.1733" width="5" height="4.99616" transform="rotate(-46.3048 68.9944 54.1733)" fill="white"/><rect x="81.9321" y="66.5349" width="5" height="44.1061" transform="rotate(-46.3048 81.9321 66.5349)" fill="white"/><rect width="5" height="43.7825" transform="matrix(-0.70092 -0.71324 -0.71324 0.70092 201.732 66.4604)" fill="white"/><rect width="5.00313" height="5" transform="matrix(-0.70092 -0.71324 -0.71324 0.70092 214.45 53.9586)" fill="white"/><rect width="5" height="42.6192" transform="matrix(-0.70092 -0.71324 -0.71324 0.70092 116.133 162.274)" fill="white"/><rect x="72.8196" y="204.839" width="5" height="5.0046" transform="rotate(-134.501 72.8196 204.839)" fill="white"/><rect x="167" y="162.323" width="5" height="43.5148" transform="rotate(-46.3048 167 162.323)" fill="white"/><rect width="5" height="5.00435" transform="matrix(0.690821 -0.723026 -0.723026 -0.690821 211.232 204.584)" fill="white"/><mask id="mask4_41_2152" style="mask-type:alpha" maskUnits="userSpaceOnUse" x="52" y="37" width="180" height="181"><path d="M138.173 210.793C139.415 213.043 140.687 215.347 142 217.708C143.314 215.345 144.586 213.04 145.829 210.789C165.878 174.475 178.229 152.102 232 127.708C178.229 103.313 165.878 80.9408 145.829 44.6264C144.586 42.375 143.314 40.07 142 37.7076C140.686 40.07 139.414 42.375 138.171 44.6264C118.122 80.9408 105.771 103.313 52 127.708C105.771 152.102 118.122 174.475 138.171 210.789L138.173 210.793Z" fill="#D9D9D9"/></mask><g mask="url(#mask4_41_2152)"><path d="M232 127.708C232 115.889 229.672 104.185 225.149 93.2661C220.626 82.3468 213.997 72.4253 205.64 64.068C197.282 55.7108 187.361 49.0814 176.442 44.5585C165.522 40.0356 153.819 37.7076 142 37.7076L142 127.708H232Z" fill="#E3796E"/><path d="M232 127.708C232 109.575 226.523 91.8647 216.286 76.8979C206.049 61.931 191.53 50.4054 174.63 43.8312L142 127.708H232Z" fill="#F3C4AE"/><path d="M232 127.708C232 119.421 230.856 111.174 228.599 103.201L142 127.708H232Z" fill="#E3746A"/><path d="M232 127.708C232 139.527 229.672 151.23 225.149 162.149C220.626 173.068 213.997 182.99 205.64 191.347C197.282 199.705 187.361 206.334 176.442 210.857C165.522 215.38 153.819 217.708 142 217.708L142 127.708H232Z" fill="#BB3E66"/><path d="M232 127.708C232 146.044 226.399 163.942 215.948 179.008C205.496 194.074 190.692 205.588 173.517 212.009L142 127.708H232Z" fill="#AD3671"/><path d="M232 127.708C232 137.808 230.3 147.836 226.971 157.372L142 127.708H232Z" fill="#BA416C"/><path d="M52 127.708C52 115.889 54.3279 104.185 58.8508 93.2661C63.3738 82.3468 70.0031 72.4253 78.3604 64.068C86.7177 55.7108 96.6392 49.0814 107.558 44.5585C118.478 40.0356 130.181 37.7076 142 37.7076L142 127.708H52Z" fill="#B02639"/><path d="M52 127.708C52 109.575 57.4773 91.8647 67.7143 76.8979C77.9513 61.931 92.4705 50.4054 109.37 43.8312L142 127.708H52Z" fill="#BF334C"/><path d="M52 127.708C52 119.421 53.1444 111.174 55.4008 103.201L142 127.708H52Z" fill="#B02639"/><path d="M52 127.708C52 139.527 54.3279 151.23 58.8508 162.149C63.3738 173.068 70.0031 182.99 78.3604 191.347C86.7177 199.705 96.6392 206.334 107.558 210.857C118.478 215.38 130.181 217.708 142 217.708L142 127.708H52Z" fill="#9E1F42"/><path d="M52 127.708C52 146.044 57.6006 163.942 68.0523 179.008C78.504 194.074 93.3081 205.588 110.483 212.009L142 127.708H52Z" fill="#8B1940"/><path d="M52 127.708C52 137.808 53.7002 147.836 57.0293 157.372L142 127.708H52Z" fill="#9C1F43"/></g><mask id="mask5_41_2152" style="mask-type:alpha" maskUnits="userSpaceOnUse" x="88" y="61" width="108" height="133"><path d="M139.704 188.637C140.449 190.287 141.212 191.976 142 193.708C142.788 191.975 143.552 190.285 144.298 188.634C156.327 162.003 163.737 145.597 196 127.708C163.737 109.818 156.327 93.4119 144.298 66.7814C143.552 65.1304 142.788 63.44 142 61.7076C141.212 63.44 140.448 65.1304 139.702 66.7814C127.673 93.4119 120.263 109.818 88 127.708C120.263 145.597 127.673 162.003 139.702 188.634L139.704 188.637Z" fill="#D9D9D9"/></mask><g mask="url(#mask5_41_2152)"><path d="M210 127.708C210 118.778 208.241 109.935 204.824 101.685C201.406 93.435 196.398 85.9388 190.083 79.6244C183.769 73.31 176.273 68.3012 168.022 64.8838C159.772 61.4665 150.93 59.7076 142 59.7076V127.708H210Z" fill="#974A7F"/><path d="M210 127.708C210 114.007 205.862 100.626 198.127 89.318C190.392 78.0098 179.422 69.3015 166.654 64.3343L142 127.708H210Z" fill="#C26CB0"/><path d="M210 127.708C210 121.447 209.135 115.216 207.43 109.191L142 127.708H210Z" fill="#9B4B84"/><path d="M210 127.708C210 136.638 208.241 145.48 204.824 153.73C201.406 161.98 196.398 169.477 190.083 175.791C183.769 182.105 176.273 187.114 168.022 190.531C159.772 193.949 150.93 195.708 142 195.708V127.708H210Z" fill="#7B3767"/><path d="M210 127.708C210 141.562 205.768 155.085 197.872 166.468C189.975 177.851 178.789 186.55 165.813 191.402L142 127.708H210Z" fill="#873E72"/><path d="M210 127.708C210 135.339 208.715 142.916 206.2 150.121L142 127.708H210Z" fill="#863D72"/><path d="M74 127.708C74 118.778 75.7589 109.935 79.1762 101.685C82.5935 93.435 87.6024 85.9388 93.9167 79.6244C100.231 73.31 107.727 68.3012 115.978 64.8838C124.228 61.4665 133.07 59.7076 142 59.7076V127.708H74Z" fill="#723565"/><path d="M74 127.708C74 114.007 78.1384 100.626 85.873 89.318C93.6076 78.0098 104.578 69.3015 117.346 64.3343L142 127.708H74Z" fill="#843B71"/><path d="M74 127.708C74 121.447 74.8647 115.216 76.5695 109.191L142 127.708H74Z" fill="#723565"/><path d="M74 127.708C74 136.638 75.7589 145.48 79.1762 153.73C82.5935 161.98 87.6024 169.477 93.9167 175.791C100.231 182.105 107.727 187.114 115.978 190.531C124.228 193.949 133.07 195.708 142 195.708V127.708H74Z" fill="#5C2B52"/><path d="M74 127.708C74 141.562 78.2316 155.085 86.1284 166.468C94.0253 177.851 105.211 186.55 118.187 191.402L142 127.708H74Z" fill="#6D295D"/><path d="M74 127.708C74 135.339 75.2846 142.916 77.7999 150.121L142 127.708H74Z" fill="#5C2B52"/></g><g filter="url(#filter0_d_41_2152)"><path d="M18 127.708H32V144.708C28.8908 137.599 25.7292 133.206 18 127.708Z" fill="#A2A19F"/><path d="M46 127.708H32V144.708C35.1092 137.599 38.2708 133.206 46 127.708Z" fill="#D6D7D6"/><path d="M18 127.708H32V110.708C28.8908 117.816 25.7292 122.209 18 127.708Z" fill="#BDBEBD"/><path d="M46 127.708H32V110.708C35.1092 117.816 38.2708 122.209 46 127.708Z" fill="white"/></g><g filter="url(#filter1_d_41_2152)"><path d="M238 127.708H252V144.708C248.891 137.599 245.729 133.206 238 127.708Z" fill="#A2A19F"/><path d="M266 127.708H252V144.708C255.109 137.599 258.271 133.206 266 127.708Z" fill="#D6D7D6"/><path d="M238 127.708H252V110.708C248.891 117.816 245.729 122.209 238 127.708Z" fill="#BDBEBD"/><path d="M266 127.708H252V110.708C255.109 117.816 258.271 122.209 266 127.708Z" fill="white"/></g><g filter="url(#filter2_d_41_2152)"><path d="M109 127.779H142V167.85C134.671 151.095 127.219 140.74 109 127.779Z" fill="#A2A19F"/><path d="M175 127.779H142V167.85C149.329 151.095 156.781 140.74 175 127.779Z" fill="#D6D7D6"/><path d="M109 127.779H142V87.7076C134.671 104.463 127.219 114.818 109 127.779Z" fill="#BDBEBD"/><path d="M175 127.779H142V87.7076C149.329 104.463 156.781 114.818 175 127.779Z" fill="white"/></g><defs><filter id="filter0_d_41_2152" x="0" y="92.7076" width="64" height="70" filterUnits="userSpaceOnUse" color-interpolation-filters="sRGB"><feFlood flood-opacity="0" result="BackgroundImageFix"/><feColorMatrix in="SourceAlpha" type="matrix" values="0 0 0 0 0 0 0 0 0 0 0 0 0 0 0 0 0 0 127 0" result="hardAlpha"/><feOffset/><feGaussianBlur stdDeviation="9"/><feComposite in2="hardAlpha" operator="out"/><feColorMatrix type="matrix" values="0 0 0 0 0 0 0 0 0 0 0 0 0 0 0 0 0 0 0.65 0"/><feBlend mode="normal" in2="BackgroundImageFix" result="effect1_dropShadow_41_2152"/><feBlend mode="normal" in="SourceGraphic" in2="effect1_dropShadow_41_2152" result="shape"/></filter><filter id="filter1_d_41_2152" x="220" y="92.7076" width="64" height="70" filterUnits="userSpaceOnUse" color-interpolation-filters="sRGB"><feFlood flood-opacity="0" result="BackgroundImageFix"/><feColorMatrix in="SourceAlpha" type="matrix" values="0 0 0 0 0 0 0 0 0 0 0 0 0 0 0 0 0 0 127 0" result="hardAlpha"/><feOffset/><feGaussianBlur stdDeviation="9"/><feComposite in2="hardAlpha" operator="out"/><feColorMatrix type="matrix" values="0 0 0 0 0 0 0 0 0 0 0 0 0 0 0 0 0 0 0.65 0"/><feBlend mode="normal" in2="BackgroundImageFix" result="effect1_dropShadow_41_2152"/><feBlend mode="normal" in="SourceGraphic" in2="effect1_dropShadow_41_2152" result="shape"/></filter><filter id="filter2_d_41_2152" x="91" y="69.7076" width="102" height="116.143" filterUnits="userSpaceOnUse" color-interpolation-filters="sRGB"><feFlood flood-opacity="0" result="BackgroundImageFix"/><feColorMatrix in="SourceAlpha" type="matrix" values="0 0 0 0 0 0 0 0 0 0 0 0 0 0 0 0 0 0 127 0" result="hardAlpha"/><feOffset/><feGaussianBlur stdDeviation="9"/><feComposite in2="hardAlpha" operator="out"/><feColorMatrix type="matrix" values="0 0 0 0 0 0 0 0 0 0 0 0 0 0 0 0 0 0 0.65 0"/><feBlend mode="normal" in2="BackgroundImageFix" result="effect1_dropShadow_41_2152"/><feBlend mode="normal" in="SourceGraphic" in2="effect1_dropShadow_41_2152" result="shape"/></filter></defs></svg> 