<!-- created by svgstack.com | Attribution is required. --><svg width="228" height="244" viewBox="0 0 228 244" fill="none" xmlns="http://www.w3.org/2000/svg"><path d="M114 0L200.489 88.8515C218.504 107.358 218.504 136.642 200.489 155.148L114 244V0Z" fill="#555754"/><path d="M114 0L27.5107 88.8515C9.49643 107.358 9.49644 136.642 27.5107 155.148L114 244V0Z" fill="#484D50"/><mask id="mask0_41_2155" style="mask-type:alpha" maskUnits="userSpaceOnUse" x="57" y="53" width="114" height="138"><path d="M163.271 103.105L114 53L64.7289 103.105C54.4237 113.585 54.4237 130.415 64.7289 140.895L114 191L163.271 140.895C173.576 130.415 173.576 113.585 163.271 103.105Z" fill="#ADB2AF"/></mask><g mask="url(#mask0_41_2155)"><path d="M216.285 84.3329C210.661 69.0622 201.69 55.2444 190.029 43.8937C178.368 32.5429 164.314 23.9471 148.897 18.7372L114 122L216.285 84.3329Z" fill="#C5C9C7"/><path d="M113.886 13C125.983 13 137.995 15.0136 149.431 18.9583L113.886 122V13Z" fill="#B7BDBA"/><path d="M114 231C140.072 231 165.28 221.655 185.051 204.66C204.822 187.666 217.848 164.147 221.763 138.372L114 122V231Z" fill="#A5A9A8"/><path d="M223 122C223 108.986 220.67 96.078 216.119 83.886L114 122L223 122Z" fill="#B2B4B2"/><path d="M223 122C223 127.936 222.515 133.862 221.55 139.719L114 122L223 122Z" fill="#969A99"/><path d="M114 13C99.6859 13 85.512 15.8194 72.2875 21.2971C59.063 26.7749 47.0469 34.8038 36.9254 44.9254C26.8038 55.047 18.7749 67.063 13.2971 80.2875C7.81936 93.512 5 107.686 5 122L114 122V13Z" fill="#969999"/><path d="M114 231C87.6733 231 62.2362 221.472 42.3885 204.175C22.5407 186.879 9.62364 162.984 6.0238 136.904L114 122V231Z" fill="#8C908E"/><path d="M5 122C5 128.33 5.55136 134.647 6.64783 140.882L114 122L5 122Z" fill="#848886"/></g><path d="M112 25L114.17 22.9281L112 20.6561L109.83 22.9281L112 25ZM44.5383 95.6442L42.3687 93.5723L44.5383 95.6442ZM179.462 95.6442L177.292 97.7161L179.462 95.6442ZM179.462 148.356L177.292 146.284L179.462 148.356ZM112 219L109.83 221.072L112 223.344L114.17 221.072L112 219ZM44.5383 148.356L46.708 146.284H46.708L44.5383 148.356ZM109.83 22.9281L42.3687 93.5723L46.708 97.7161L114.17 27.0719L109.83 22.9281ZM109.83 27.0719L177.292 97.7161L181.631 93.5723L114.17 22.9281L109.83 27.0719ZM177.292 97.7161C190.236 111.271 190.236 132.729 177.292 146.284L181.631 150.428C196.79 134.554 196.79 109.446 181.631 93.5723L177.292 97.7161ZM177.292 146.284L109.83 216.928L114.17 221.072L181.631 150.428L177.292 146.284ZM42.3687 150.428L109.83 221.072L114.17 216.928L46.708 146.284L42.3687 150.428ZM42.3687 93.5723C27.2104 109.446 27.2104 134.554 42.3687 150.428L46.708 146.284C33.764 132.729 33.764 111.271 46.708 97.7161L42.3687 93.5723Z" fill="#ADB2B2"/><path d="M112 219L179.462 148.356C193.513 133.642 193.513 110.358 179.462 95.6442L112 25" stroke="#ECF4F4" stroke-width="6"/><mask id="mask1_41_2155" style="mask-type:alpha" maskUnits="userSpaceOnUse" x="83" y="85" width="63" height="74"><path d="M87.6654 111.613L114.279 85L140.892 111.613C146.628 117.35 146.628 126.65 140.892 132.387L114.279 159L87.6654 132.387C81.9289 126.65 81.9289 117.35 87.6654 111.613Z" fill="#8E938E"/></mask><g mask="url(#mask1_41_2155)"><path d="M159.981 105.067C157.453 98.2023 153.42 91.9906 148.178 86.888C142.936 81.7853 136.618 77.9212 129.688 75.5791L114 122L159.981 105.067Z" fill="#A3A8A6"/><path d="M114 73C119.391 73 124.745 73.8896 129.846 75.6329L114 122V73Z" fill="#999D9B"/><path d="M114 171C120.435 171 126.807 169.733 132.751 167.27C138.696 164.808 144.098 161.198 148.648 156.648C153.198 152.098 156.808 146.696 159.27 140.751C161.733 134.807 163 128.435 163 122L114 122V171Z" fill="#7F8584"/><path d="M163 122C163 116.15 161.952 110.347 159.907 104.866L114 122L163 122Z" fill="#9FA4A1"/><path d="M114 73C107.565 73 101.193 74.2674 95.2485 76.7299C89.3036 79.1924 83.9018 82.8017 79.3518 87.3518C74.8017 91.9018 71.1924 97.3036 68.7299 103.249C66.2674 109.193 65 115.565 65 122L114 122V73Z" fill="#868A86"/><path d="M114 171C107.565 171 101.193 169.733 95.2485 167.27C89.3036 164.808 83.9018 161.198 79.3518 156.648C74.8017 152.098 71.1924 146.696 68.7299 140.751C66.2674 134.807 65 128.435 65 122L114 122V171Z" fill="#777977"/></g><g filter="url(#filter0_d_41_2155)"><path d="M18 122H32V139C28.8908 131.892 25.7292 127.499 18 122Z" fill="#A2A19F"/><path d="M46 122H32V139C35.1092 131.892 38.2708 127.499 46 122Z" fill="#D6D7D6"/><path d="M18 122H32V105C28.8908 112.108 25.7292 116.501 18 122Z" fill="#BDBEBD"/><path d="M46 122H32V105C35.1092 112.108 38.2708 116.501 46 122Z" fill="white"/></g><g filter="url(#filter1_d_41_2155)"><path d="M182 122H196V139C192.891 131.892 189.729 127.499 182 122Z" fill="#A2A19F"/><path d="M210 122H196V139C199.109 131.892 202.271 127.499 210 122Z" fill="#D6D7D6"/><path d="M182 122H196V105C192.891 112.108 189.729 116.501 182 122Z" fill="#BDBEBD"/><path d="M210 122H196V105C199.109 112.108 202.271 116.501 210 122Z" fill="white"/></g><g filter="url(#filter2_d_41_2155)"><path d="M81 122.071H114V162.143C106.671 145.387 99.2187 135.032 81 122.071Z" fill="#A2A19F"/><path d="M147 122.071H114V162.143C121.329 145.387 128.781 135.032 147 122.071Z" fill="#D6D7D6"/><path d="M81 122.071H114V82C106.671 98.7554 99.2187 109.11 81 122.071Z" fill="#BDBEBD"/><path d="M147 122.071H114V82C121.329 98.7554 128.781 109.11 147 122.071Z" fill="white"/></g><path d="M76 187L114 227V211L84 180L76 187Z" fill="#B5C5C0"/><path d="M152 187L114 227V211L144 180L152 187Z" fill="#DEF9EF"/><path d="M76 59L114 19V35L84 66L76 59Z" fill="#D9D9D9"/><path d="M76 59L114 19V35L84 66L76 59Z" fill="#B5C5C0"/><path d="M152 59L114 19V35L144 66L152 59Z" fill="#DEF9EF"/><defs><filter id="filter0_d_41_2155" x="0" y="87" width="64" height="70" filterUnits="userSpaceOnUse" color-interpolation-filters="sRGB"><feFlood flood-opacity="0" result="BackgroundImageFix"/><feColorMatrix in="SourceAlpha" type="matrix" values="0 0 0 0 0 0 0 0 0 0 0 0 0 0 0 0 0 0 127 0" result="hardAlpha"/><feOffset/><feGaussianBlur stdDeviation="9"/><feComposite in2="hardAlpha" operator="out"/><feColorMatrix type="matrix" values="0 0 0 0 0 0 0 0 0 0 0 0 0 0 0 0 0 0 0.65 0"/><feBlend mode="normal" in2="BackgroundImageFix" result="effect1_dropShadow_41_2155"/><feBlend mode="normal" in="SourceGraphic" in2="effect1_dropShadow_41_2155" result="shape"/></filter><filter id="filter1_d_41_2155" x="164" y="87" width="64" height="70" filterUnits="userSpaceOnUse" color-interpolation-filters="sRGB"><feFlood flood-opacity="0" result="BackgroundImageFix"/><feColorMatrix in="SourceAlpha" type="matrix" values="0 0 0 0 0 0 0 0 0 0 0 0 0 0 0 0 0 0 127 0" result="hardAlpha"/><feOffset/><feGaussianBlur stdDeviation="9"/><feComposite in2="hardAlpha" operator="out"/><feColorMatrix type="matrix" values="0 0 0 0 0 0 0 0 0 0 0 0 0 0 0 0 0 0 0.65 0"/><feBlend mode="normal" in2="BackgroundImageFix" result="effect1_dropShadow_41_2155"/><feBlend mode="normal" in="SourceGraphic" in2="effect1_dropShadow_41_2155" result="shape"/></filter><filter id="filter2_d_41_2155" x="63" y="64" width="102" height="116.143" filterUnits="userSpaceOnUse" color-interpolation-filters="sRGB"><feFlood flood-opacity="0" result="BackgroundImageFix"/><feColorMatrix in="SourceAlpha" type="matrix" values="0 0 0 0 0 0 0 0 0 0 0 0 0 0 0 0 0 0 127 0" result="hardAlpha"/><feOffset/><feGaussianBlur stdDeviation="9"/><feComposite in2="hardAlpha" operator="out"/><feColorMatrix type="matrix" values="0 0 0 0 0 0 0 0 0 0 0 0 0 0 0 0 0 0 0.65 0"/><feBlend mode="normal" in2="BackgroundImageFix" result="effect1_dropShadow_41_2155"/><feBlend mode="normal" in="SourceGraphic" in2="effect1_dropShadow_41_2155" result="shape"/></filter></defs></svg> 