<!-- created by svgstack.com | Attribution is required. --><svg width="164" height="248" viewBox="0 0 164 248" fill="none" xmlns="http://www.w3.org/2000/svg"><path d="M22.0797 102.964L82 29V187L22.0797 113.036C19.7012 110.1 19.7012 105.9 22.0797 102.964Z" fill="#53544B"/><path d="M141.92 102.964L82 29V187L141.92 113.036C144.299 110.1 144.299 105.9 141.92 102.964Z" fill="#7B7868"/><path d="M128.013 105.626C129.329 107.297 129.329 109.703 128.013 111.374L82 169.768L35.9873 111.374C34.6706 109.703 34.6706 107.297 35.9873 105.626L82 47.2314L128.013 105.626Z" stroke="#9F9D88" stroke-width="4"/><path d="M160.066 102.959C162.644 106.187 162.644 110.813 160.066 114.041L82 211.795L3.93359 114.041C1.35568 110.813 1.35569 106.187 3.93359 102.959L82 5.2041L160.066 102.959Z" stroke="#696960" stroke-width="4"/><path d="M82 178V133L46 89V133L82 178Z" fill="url(#paint0_linear_41_2158)"/><path d="M82 178V133L118 89V133L82 178Z" fill="url(#paint1_linear_41_2158)"/><path d="M82 0V13L49 54L43 48L82 0Z" fill="#DEEBDE"/><path d="M82 0V13L115 54L121 48L82 0Z" fill="#E7EBDE"/><path d="M4 182.168V117L110 248H55L5.78204 187.201C4.62908 185.777 4 184 4 182.168Z" fill="url(#paint2_radial_41_2158)"/><path d="M160 117V183.943C160 185.912 159.274 187.811 157.962 189.278L143 206H89L160 117Z" fill="url(#paint3_radial_41_2158)"/><path d="M75.0724 45.467L82 37V59L75.0724 50.533C73.8669 49.0595 73.8669 46.9405 75.0724 45.467Z" fill="#EFFBF4"/><path d="M88.9276 45.467L82 37V59L88.9276 50.533C90.1331 49.0595 90.1331 46.9405 88.9276 45.467Z" fill="#E1EDE1"/><g opacity="0.9"><path d="M67.209 86.905L82 69V115L67.209 97.0951C64.7659 94.1376 64.7659 89.8624 67.209 86.905Z" fill="url(#paint4_linear_41_2158)"/><path d="M96.791 86.905L82 69V115L96.791 97.0951C99.2341 94.1376 99.2341 89.8624 96.791 86.905Z" fill="url(#paint5_linear_41_2158)"/></g><defs><linearGradient id="paint0_linear_41_2158" x1="46" y1="133.5" x2="82" y2="133.5" gradientUnits="userSpaceOnUse"><stop stop-color="#FFA631"/><stop offset="0.122419" stop-color="#EF9631"/><stop offset="0.275468" stop-color="#AD7929"/><stop offset="0.68" stop-color="#AD7D31"/><stop offset="0.839251" stop-color="#B58642"/><stop offset="0.95" stop-color="#FFCB6B"/><stop offset="0.984375" stop-color="#FEFE83"/></linearGradient><linearGradient id="paint1_linear_41_2158" x1="82" y1="133.5" x2="118" y2="133.5" gradientUnits="userSpaceOnUse"><stop stop-color="#FFFF8C"/><stop offset="0.04" stop-color="#DEC78E"/><stop offset="0.15" stop-color="#DECF94"/><stop offset="0.268946" stop-color="#E9D596"/><stop offset="0.286181" stop-color="#FFE39C"/><stop offset="0.32065" stop-color="#FFF9A2"/><stop offset="0.700294" stop-color="#FFFFB5"/><stop offset="0.731234" stop-color="white"/><stop offset="0.861337" stop-color="white"/><stop offset="0.89" stop-color="#FFFFBD"/><stop offset="0.917987" stop-color="#FFE79C"/><stop offset="0.966817" stop-color="#FFF3AC"/><stop offset="1" stop-color="#D5C68B"/></linearGradient><radialGradient id="paint2_radial_41_2158" cx="0" cy="0" r="1" gradientUnits="userSpaceOnUse" gradientTransform="translate(82 157.5) rotate(90) scale(90.5 100.39)"><stop stop-color="#F6F2D5"/><stop offset="0.665" stop-color="#F7F5E4"/><stop offset="1" stop-color="#EFF9EF"/></radialGradient><radialGradient id="paint3_radial_41_2158" cx="0" cy="0" r="1" gradientUnits="userSpaceOnUse" gradientTransform="translate(82 157.5) rotate(90) scale(90.5 100.39)"><stop stop-color="#F6F2D5"/><stop offset="0.665" stop-color="#F7F5E4"/><stop offset="1" stop-color="#EFF9EF"/></radialGradient><linearGradient id="paint4_linear_41_2158" x1="63" y1="92" x2="82" y2="92" gradientUnits="userSpaceOnUse"><stop offset="0.11" stop-color="#E79E39"/><stop offset="0.465" stop-color="#B78E4A"/><stop offset="0.825" stop-color="#B78E4A"/><stop offset="1" stop-color="#CEB273"/></linearGradient><linearGradient id="paint5_linear_41_2158" x1="83" y1="92" x2="95.5" y2="92" gradientUnits="userSpaceOnUse"><stop stop-color="#ECDFAF"/><stop offset="0.085" stop-color="#F7F7D6"/><stop offset="0.184275" stop-color="#F1E7BA"/><stop offset="0.375872" stop-color="#F7F3A5"/><stop offset="1" stop-color="#F7F3C6"/></linearGradient></defs></svg> 